/* XPM */
static char *_933ae189d054e97dd1de978155dabb8v6BxrH2lnMwkMj81[] = {
/* columns rows colors chars-per-pixel */
"64 64 250 2 ",
"   c None",
".  c #010102",
"X  c #01020B",
"o  c #0B0A09",
"O  c #120E06",
"+  c #191409",
"@  c #000313",
"#  c #050C1C",
"$  c #060A16",
"%  c #0C111B",
"&  c #13151B",
"*  c #1B1B1B",
"=  c #191916",
"-  c #251C0B",
";  c #221E13",
":  c #2C220B",
">  c #36280B",
",  c #282315",
"<  c #352B14",
"1  c #3B2E13",
"2  c #342B19",
"3  c #3D3115",
"4  c #3C331A",
"5  c #39331D",
"6  c #0D1424",
"7  c #151A25",
"8  c #181D27",
"9  c #071126",
"0  c #1D222B",
"q  c #1D2128",
"w  c #1C2436",
"e  c #242423",
"r  c #23252C",
"t  c #2C2C2B",
"y  c #2B2924",
"u  c #332E25",
"i  c #3C3423",
"p  c #3A362A",
"a  c #292D34",
"s  c #343433",
"d  c #3D3B34",
"f  c #3A3A39",
"g  c #2F3135",
"h  c #46330E",
"j  c #443413",
"k  c #4C3A14",
"l  c #42361B",
"z  c #443A1C",
"x  c #4A3C1B",
"c  c #493712",
"v  c #523D14",
"b  c #503D19",
"n  c #4E3609",
"m  c #443B23",
"M  c #4A3E24",
"N  c #443D2C",
"B  c #453A26",
"V  c #443F33",
"C  c #403F3F",
"Z  c #54421C",
"A  c #594518",
"S  c #4F411F",
"D  c #704F12",
"F  c #4D4223",
"G  c #4C432C",
"H  c #47422D",
"J  c #524524",
"K  c #52462B",
"L  c #54492D",
"P  c #5A4C2B",
"I  c #594A25",
"U  c #454133",
"Y  c #4C4533",
"T  c #4A463A",
"R  c #544B34",
"E  c #5A4E33",
"W  c #544D3B",
"Q  c #554A35",
"!  c #5D5134",
"~  c #57513D",
"^  c #5C523C",
"/  c #5F583F",
"(  c #614D27",
")  c #63522D",
"_  c #6B5728",
"`  c #745A26",
"'  c #625436",
"]  c #61563C",
"[  c #64593D",
"{  c #6B5D3D",
"}  c #6A5934",
"|  c #715D35",
" . c #6B613D",
".. c #786439",
"X. c #7C622C",
"o. c #333A46",
"O. c #3D4147",
"+. c #3D4556",
"@. c #494946",
"#. c #544E42",
"$. c #5C5543",
"%. c #5A5646",
"&. c #454B55",
"*. c #585856",
"=. c #4E525A",
"-. c #635A43",
";. c #6A5D42",
":. c #645D4B",
">. c #635844",
",. c #615D55",
"<. c #6E6244",
"1. c #6B624B",
"2. c #736443",
"3. c #776A4A",
"4. c #696457",
"5. c #746B54",
"6. c #736C5C",
"7. c #756B56",
"8. c #7C725A",
"9. c #7E704C",
"0. c #565B64",
"q. c #4D5463",
"w. c #5D626B",
"e. c #6C6C6D",
"r. c #646567",
"t. c #736E62",
"y. c #7C7463",
"u. c #777368",
"i. c #737271",
"p. c #646973",
"a. c #8D5900",
"s. c #916613",
"d. c #AB730E",
"f. c #866728",
"g. c #866C37",
"h. c #8A713A",
"j. c #967837",
"k. c #9B7526",
"l. c #A47C31",
"z. c #805F22",
"x. c #C87A00",
"c. c #897649",
"v. c #967B47",
"b. c #85795A",
"n. c #8A754E",
"m. c #847A64",
"M. c #857C69",
"N. c #847E74",
"B. c #AB8537",
"V. c #B58A32",
"C. c #B6811A",
"Z. c #D58805",
"A. c #D99517",
"S. c #CD8B10",
"D. c #E79401",
"F. c #E19915",
"G. c #F3AA1D",
"H. c #C9942B",
"J. c #D79928",
"K. c #CA9735",
"L. c #D49E38",
"P. c #C78F24",
"I. c #DBA438",
"U. c #DDA22D",
"Y. c #E4A329",
"T. c #E6AB37",
"R. c #F3B43A",
"E. c #F1B234",
"W. c #E09F22",
"Q. c #FFC138",
"!. c #9C8249",
"~. c #9B895A",
"^. c #A58748",
"/. c #B9954A",
"(. c #A58D57",
"). c #AC9358",
"_. c #B99C59",
"`. c #B18C47",
"'. c #BDA15D",
"]. c #8C816C",
"[. c #8A8162",
"{. c #96886A",
"}. c #958B76",
"|. c #968B77",
" X c #AA976B",
".X c #B59B67",
"XX c #A8956F",
"oX c #B9A477",
"OX c #BCA469",
"+X c #C89B45",
"@X c #D8A849",
"#X c #CBA658",
"$X c #D7AD57",
"%X c #DAB35A",
"&X c #CDA24A",
"*X c #EBB54A",
"=X c #F4B946",
"-X c #E7B858",
";X c #F3BE55",
":X c #E4AE46",
">X c #C7A968",
",X c #D9B567",
"<X c #C7AC76",
"1X c #D2B572",
"2X c #E4BC6A",
"3X c #E5BB64",
"4X c #E5BF76",
"5X c #EDC25C",
"6X c #FAC85A",
"7X c #FFD65A",
"8X c #FEC74B",
"9X c #EBC368",
"0X c #F6C968",
"qX c #FED769",
"wX c #EAC778",
"eX c #F5CC75",
"rX c #FAD67A",
"tX c #FFE36C",
"yX c #FFE477",
"uX c #FFF27B",
"iX c #D9C578",
"pX c #9B958E",
"aX c #B7B6B7",
"sX c #ABAAAA",
"dX c #A4A29F",
"fX c #D5BC86",
"gX c #CAB890",
"hX c #C3BDB0",
"jX c #DBC490",
"kX c #E8C987",
"lX c #F7D784",
"zX c #E6CD9A",
"xX c #EBD38F",
"cX c #FFE587",
"vX c #FFF687",
"bX c #FEE996",
"nX c #FCF594",
"mX c #D8CAAA",
"MX c #CEC5B4",
"NX c #E9D4A9",
"BX c #E7D6B7",
"VX c #FBECAA",
"CX c #B7BCC6",
"ZX c #BFC1C6",
"AX c #CBCDCF",
"SX c #ECE4D0",
"DX c #D2D9E4",
"FX c #DAE7F9",
"GX c #DFE2E3",
"HX c #E1E9F5",
/* pixels */
"                                                    zXjXNX                                                                      ",
"                                      jX-X;X-X:X@X&X&X#X&X$X,X2XwXkXzX                                                          ",
"                                zXeX*XA.d.z.| >.#.*.=.%.,.r.t.M.{.XX>X,X4XkXNX                                                  ",
"                            kX6X:XV.2.u . . @ g a a o.@.+.&.=.q.0.0.r.i.}..X,X4XxX                                              ",
"                        zX6X=Xv.Y 8 # @ . O 5 p @.%.4.4.6.m.*.r.r.e.e.e.p.p.i.}.OX3XkXBX                                        ",
"                      0X8X).U # # 7 t s X : v & >.n.7.4.8.{.,.r.r.e.e.e.i.i.e.w.w.N..X$XlX                                      ",
"                    6X5X;.@ @ e e V N c.p . : 2 7 o.o.&.&.=.*.w.0.q.p.i.i.e.i.i.i.p.w.N..X-XkX                                  ",
"                NX7X#Xg @ s e N E | ] V t . . . ~.fX1.#.1XxXN.*.|.XXi.w.w.w.e.i.e.e.e.w.0.M.#X3X                                ",
"              zX7X_.6 X N (.W B } & # 6 {.cX) : $XlX~.5.OXjXXXy.fXbXoXe.}.|.p.r.e.e.r.e.r.q.0.(.*XkX                            ",
"            NXtX'.# $ e * c.c.y 7 1.<.p 1XkXX.h k L 4.b.4.4.m.].M.}.}.N.fXbXoXw.0.0.r.r.r.r.0.&.m.:X4X                          ",
"            7X%X# $ e e 7 y & X [ nXwX^ ~ ^ H S k m :.6.7.8.y.m.M.M.M.].].XXXXM.oXoX,.0.r.,.,.=.o.r.@X-X                        ",
"          rX0Xe @ e , q y $ V ^ { ~.2.] T (._., : z ] 7.b.m.m.M.M.N.{.].N.u.M.u.XXlX.X=.&.=.0.*.*.+.=.+X;X                      ",
"        xXtX^ X q , q * @ P vX#XU Q ] ^ $.n.>Xc.+ D N %.m.b.m.m.M.M.].}.M.M.M.fXXXM.M.b.b.4.&.*.=.*.o.&.+X:X                    ",
"        tX(.. = * * * @ @ 3._.<.;.] W >.<.2.>X>Xl - o U 8.y.y.m.M.{.].].].].M.oX<Xt.6.m.3X3X,.o.@.@.=.o.O.+X-X                  ",
"      bXqXq X * = * $ ../.~ U [ ^ W ;.2.$.>.$.s , o O i 1.4.6.t.m.M.].M.].].M.m.<X].6.6.b.#Xn.O.o.@.@.@.o.C @X-X                ",
"      uXn.. = = = % & 6X5XW  .W ^ -.3.W r 8 a @.T 4 3 4 #.6.6.t.t.t.y.m.].{.M.m.<X4Xb.7.7.,.4.v.c.o.C C C o.#.T.kX              ",
"    bXeXy X = = = X q c.[ [ W W / { n.T 0 ~ %.1.>.V j l Y 4.6.4.4.m.m.m.m.r.M.m.m.M.7.7.7.7.4.v.=Xg.w C o.C w 2.T.              ",
"    vX(.X = = & X ) ^.U / ! R W W 9.$.W $.%.~ 1.5.-.z : , T 6.8.M.r.r.b.m.m.6.6.b.oX>Xb.3.1.1.:.v.v.w 0 V C s w v.=X            ",
"  BXyXQ X * = $ = Q.$XU R d H 3.OX9.9.#.~ %.1.T #.T 2 h _ ).wXwXkXfXoXM.0.m.m.t.,.b.OXb.3.1.>.;.$.;.v.@.8 s s a s L.2X          ",
"  bX9Xq % * * $ % h.! 3./ _.~.wXwX^ 9.s ~ #.@.6.[. X<X9X7XqXlXkX4X4XeX4XM.,.4.m.7.,.*.4.n.3.<.$.;.d n.cXC 0 s a 9 $.T.          ",
"  cX).# * * & o z U ~ cX(.OX.X(.W r f :.[.[.<XlXlXbXnXcX0X5XwXiX4X4X4X2X3X.X6.6.7.n.*.>.1.3.2.;.[ V * 4X,X$ t V V d B.-X        ",
"  yXc.@ e * @ J R. ./ )./ W 3.d Y c.v.%X3X0X0X9XwXlXxXlXrXtXtXuXlXeX4X,X,X;Xv.r.4.4.4.#.>.;.2.;.] E V ^ 3.N ' } ' V ;.Y.        ",
"  qX] $ e * @ ( I. .Y u H <.b.U T K.R.@X@X%X3X9X9XwXbXnXyX%XB.9.M..XeX2X,X-X#Xb.4.7.:.1.W $.;.2.^ Q V V B ' E B N V Y B.-X      ",
"NX0XV 6 e , % & !  .! R / 3.$.~ @.X.U.+X@X$X-XqXcXlX1X X .< - ; @.%.}.eX,X$X*Xv.,.1.:.>.>.Y ^ [ | V B M N L V v.-Xv.N g.Y.      ",
"zX-Xs * e 8 = ( } [ E N ^ 3.R U T 1.K.T.*X%X1X X[.4.@.T ~ Y J J 2.7.*.oX9X%X:X+X5.:.>.$.>.~ Y ^ } E V M P | E ^./.c.M N K.2X    ",
"xX%Xt q e 6 i E.g.Y N N / n.~ U W %.j.K.!.5.,.O.T W 1.5.5./ z z M 3.4.{.wX%X$X&Xc.4.>.-.Q ] Y Q E N P M N M B N ^.`.E B h.T.    ",
"iX%Xe q y 8 2 l...Q R N  .c.W #.$.#.#.@.@.:.<.%.1.:.5.5.%.~ H J m Q %.m.4X%X$X@Xc.:.1./ ^ T Q N N y B B B l 4 ( l.`.v.M ( L.fX  ",
"kX$Xt q y t % r ' ! R R 2.<.W W ^ ~ -.$.1.3.%.%.:.5.1.%.:.5. .I M N O.(.0X3X$X:X2.#.2.] ^ Q E G B B B u B P E 4 | -X`.B u K.3X  ",
"kX$Xt r t e 2 | ' E K Q  .[ Q #.^ #.$.-.3.%.$.1.-.5.%.%.1.1.d + > _ _.eX2X3X$X:X$.#.;.-.^ E Y N B g.B } `.%X%Xm 4 I m I M j.=X  ",
"kX%Xs q t 6 M E.X.T R Q 2.[ T W $.~ $.-.3.$.$.%.1./ C @.5.8.b.).$X6XqX9X2X%X;X`.T ^ ^ ;.E Y N M i N L ,XqX0XqXv.2 M ( P l | R.  ",
"  -XY 8 g r u B...Q R G { ;.Q W ^ ~ ~ -.<.$.^ U :.8.[.OXiXrXvXnXyX0X5X9X3X3X2X:.T Q ^ { ' Y Y E u E | v.0X;XqX0XE l m m m P I.1X",
"  6X[ 7 t s q a -.[ Y N [ ..W Q W W ^ $.2.$.T 8.'.2X0XtX0XwXwXrXrX0X5X-X0X2X*.d -.Q Y ;.' E M L l M L g.0X0X#X`.K m I P ( _ &XiX",
"  0Xn.7 s t t V g.{ ' Y ' { ^ V ^ ^ / / <.~ 9.*XT.:X%X%X9X9XrXvXnXyXqX5X9X9X).:.H W H / ! L H H z H 5 I !...K z J } ..I i y /.9X",
"  eXv.8 s g w l.L.$.! E ' { ' V W >.^ / / %.V.U.&X@X@X5XqXyXwXOXc.P %XtX-X%X7X,X%.p Y ! ! H H m 5 m 5 z 5 F  .) I z , = o . j.6X",
"  kX&Xs a s w ' K.^ Q Y ! { ' Q Y ^ W Q / $.B.U.K.@X:X#X(.b./ d * $ 3 @XtX5X%X;X%X .t ! ! H H F 5 5 ! L L L , ; ,Xf.. o . . f.7X",
"    ;X#.8 V s r V >.{ E Y ' N ' Q Q ~ R ~ ~ ` P.K.L.5X8.7 t !  . . .p : B.qX9X@X=X:X..H R L F H m H } H P 2 . O tX/.. . . . f.7X",
"    0Xv.w s s a V g.>.E E E N M V Y ! Q W ^ R k.U.K.T._.~ Y H R ' / G , O !.qX5XL.I.T.!.d H F F 5 m I F I o . + h.x . . . . f.7X",
"    wX+Xg a s w ) Y.g.V L E u u Q R R Y R K T k.W.H.L.-X9.H ! Y H G H F F ; X.6X6XI.I.Y.C.p e J , < I P 4 o . , 2 . . . . . j.qX",
"    mX=X2.w C g g l.h.E L E B @ K E N E H R H ! P.J.K.R.(.5 ! ' ! L ! L S 5 = S @X8XH.P.A.C.Z 5 , z P _ , o o S C.- . . o . ^.rX",
"    hXeXl.w t s t a V Q ' M E i i K G N L H L s s.W.V.U.%X~ 5 H L L F F 5 4 < = 5 +XQ.E.W.S.D = 2 ) F 5 _ 0Xm A G.n X = & % #XcX",
"      zX*X^ w s g 7 L f.E P M ) K K K u K K B p I A.P.H.8Xc., m 5 5 z 4 < < 5 S 5 5 !.B.Z ; z ; z P F 5 ..2X! R ` , 7 e & y 9XxX",
"      ZX0XB.w t t 7 ( E.` K M M P ) ) K u K M B m s.A.P.W.&X5 3 z z z z z z F S I 3 = = = 5 5 , L K L p 3.3.E 1.6 % e e $ W yXjX",
"        NXE.E 6 t t 7 f.f.N P M J P ( ) B ; M x * A Z.C.P.T...S Z S z Z I _ S z 4 5 z < z L = ' ../ '.v.yX~.E T.I % e y $ b.nXgX",
"        AX2XK.w q t e 9 y K M I m M M Z _ l O 1 4 - d.D.F.Q.#Xm z z S z Z I z < z 5 5 m J = 5 0X'...rX3.c.~ h.R.B 6 y r % OXnX  ",
"          AXE.f.9 r e 7 = d.z.l c > j : D L.A O : , D Z.k.` L 1 k z 5 j z S S 3 3 < F F = F } !...L ! H R T ~ p q t t & d yXVX  ",
"          AXkXY.N @ = o o D F.n 1 h > h : z.` 1 : - : 3 2 + : z z 3 3 3 z z z z z S < , I  .L L G R p [ / !...# y t t # b.nXmX  ",
"            DXT.S.o . . . . > > > > h > > ` k.v Z k , , 1 k z k z z z z z z Z S < 3 z I ) J ' L I H ! ^  .7XB.6 y t r r kXVXsX  ",
"              AXD.a.. . . . . . s.D > h > A V.( 3 A A Z < < < > < < 3 3 3 5 j z < - 4 I I ! L L H / [ U -.g.s 0 t g % 8.nXVX    ",
"              aXMXD.a.. . . . . D G.D 1 c - A ` > j b b Z A Z h 3 3 < < , : , , 2 : O 3 ) G G F ! / ! ).^ @ r s s 8 a wXVXMX    ",
"                DXfXD.D . . o o X c j j j : A I.f.> c j c Z Z A A A + O : = : 2 : 3 j j F F G ! ! H _.tXQ 7 g s s # ~.uXSX      ",
"                  FXfXD.D @ X O $ . . k J.` > v D > 1 j k A A A A A j , z : ` 7XP + 1 3 4 K / L Q ! ..[ q t s s 6 %.cXVXAX      ",
"                    FXgXD.s.@ X o o . O l.C.> > - h j j h c c k k Z A k 2 3 ` 7Xh.; z j j J H v.yXc.@ % t s s 7 s eXyXGX        ",
"                      FXjXD.d.O . o o . . o o D H.A h h > h n c 1 > > c 1 3 ` D ( I A k : S N !.,Xp 9 y g s 0 w iXyXSXaX        ",
"                        FXMXD.x.> . . o . . . : I.V.: v A > A A 1 1 j j > 3 S S c > x Z %XtXi # % 7 <.d a 8 r >XtXNXDX          ",
"                          FXAXJ.Z.D X . . . . . . O . A 8XK.h A D A Z A S S Z A !.iX..- ^.h.o % V Q n.<.# a ,XyXzXDX            ",
"                            AXFX#XZ.d.> . . . . . . . . A X.. : 5X6X1 : %XvX_ O _.xXN . . . O L / $.t q #.9XtXjXDX              ",
"                              sXFXMXJ.Z.a.- . . . . . . . . . . < S o . F [ = . X X @ 4 v . + ` p 9 r n.qXrXgXCX                ",
"                                  DXFX<XA.x.a.> . . . . . . . . . . ) c . . o 5 = K u & k j . . 7 <.$X7XwXaXsX                  ",
"                                    dXFXDX>XF.x.a.n O . . . . . . . g.h.- _ 4 P P J N @ @ . + D K.7X0XmXDXdX                    ",
"                                        sXHXGXgXU.D.x.a.D > O . . . o * o % $ X & @ e N } k.A.G.*XgXGXHXpX                      ",
"                                            dXFXHXMX<XI.F.Z.x.d.a.D n n v v A D f.l.P.T.=X8X-XpXdXCXaX                          ",
"                                                |.ZXHXHXAXgX>X@XT.Y.Y.Y.W.W.T.R.*X-X,X<XhXGXFXdX6.                              ",
"                                                      pXaXDXHXHXGXAXMXMXmXMXMXaXsXsXdXaXMXaX                                    ",
"                                                                pXsXaXZXZXMXaXdXpXN.                                            "
};
