/* XPM */
static char *_56e788652834df7b4712f67378835c27AxftW6fJ9huUEjJ[] = {
/* columns rows colors chars-per-pixel */
"32 32 235 2 ",
"   c None",
".  c #000001",
"X  c #01010C",
"o  c #0A0804",
"O  c #130D06",
"+  c #171308",
"@  c #020315",
"#  c #00051D",
"$  c #080C1B",
"%  c #151512",
"&  c #1C1A16",
"*  c #0E1119",
"=  c #261C08",
"-  c #231D12",
";  c #301000",
":  c #2B210D",
">  c #262209",
",  c #33250C",
"<  c #37290C",
"1  c #2D2613",
"2  c #29261B",
"3  c #352B13",
"4  c #342B19",
"5  c #3B2E14",
"6  c #3C331C",
"7  c #3C3117",
"8  c #010627",
"9  c #0B1324",
"0  c #05112C",
"q  c #191B24",
"w  c #0A1832",
"e  c #142039",
"r  c #2E2C23",
"t  c #252627",
"y  c #342E23",
"u  c #3C3524",
"i  c #3A352C",
"p  c #3D382D",
"a  c #353227",
"s  c #272A32",
"d  c #323331",
"f  c #3D3D36",
"g  c #373A3A",
"h  c #2D333E",
"j  c #411900",
"k  c #44361A",
"l  c #43391C",
"z  c #4B3E1B",
"x  c #473614",
"c  c #523D14",
"v  c #4C3306",
"b  c #603200",
"n  c #443A24",
"m  c #493D22",
"M  c #443C2A",
"N  c #433622",
"B  c #433E32",
"V  c #4D411F",
"C  c #53411C",
"Z  c #594519",
"A  c #594317",
"S  c #5F430A",
"D  c #674C17",
"F  c #6B531A",
"G  c #7C5C1C",
"H  c #6F4D0D",
"J  c #4C422C",
"K  c #47412D",
"L  c #514525",
"P  c #5C4D23",
"I  c #534A2C",
"U  c #5B4C2A",
"Y  c #524728",
"T  c #4B4433",
"R  c #494637",
"E  c #524631",
"W  c #534A35",
"Q  c #5A4D34",
"!  c #544D3B",
"~  c #584F3A",
"^  c #5D5135",
"/  c #5B533C",
"(  c #604E2A",
")  c #674F23",
"_  c #6B5423",
"`  c #61532A",
"'  c #695528",
"]  c #735A28",
"[  c #6D5B34",
"{  c #655A3B",
"}  c #6B5D3C",
"|  c #625333",
" . c #735F37",
".. c #624F30",
"X. c #736035",
"o. c #75633A",
"O. c #7D6738",
"+. c #7A612B",
"@. c #28354B",
"#. c #3D485B",
"$. c #3F4246",
"%. c #4B4B46",
"&. c #544F41",
"*. c #545144",
"=. c #5B5543",
"-. c #55534A",
";. c #5C5848",
":. c #5C5A55",
">. c #4D525C",
",. c #635A42",
"<. c #625B4A",
"1. c #615744",
"2. c #625F56",
"3. c #6E6341",
"4. c #6E654B",
"5. c #7C6C44",
"6. c #77694A",
"7. c #686353",
"8. c #726C5C",
"9. c #776C56",
"0. c #797358",
"q. c #565D6A",
"w. c #454F64",
"e. c #5D626D",
"r. c #696761",
"t. c #736E62",
"y. c #7B7465",
"u. c #7C7568",
"i. c #767570",
"p. c #865100",
"a. c #8B6316",
"s. c #956B1B",
"d. c #8E6103",
"f. c #A46907",
"g. c #856628",
"h. c #977226",
"j. c #846D3C",
"k. c #8B743E",
"l. c #937A3B",
"z. c #957937",
"x. c #B57D24",
"c. c #8C784B",
"v. c #897548",
"b. c #87795B",
"n. c #907742",
"m. c #847B64",
"M. c #867D69",
"N. c #BC861E",
"B. c #9D883C",
"V. c #A6853E",
"C. c #B68A35",
"Z. c #BB933E",
"A. c #B38328",
"S. c #D68E09",
"D. c #FBAE1D",
"F. c #CE9635",
"G. c #F9B739",
"H. c #F2AB26",
"J. c #FFC537",
"K. c #FFD23A",
"L. c #9A8445",
"P. c #9A8757",
"I. c #8D8155",
"U. c #A88946",
"Y. c #AD924A",
"T. c #BA9746",
"R. c #A78D5A",
"E. c #A99357",
"W. c #B69755",
"Q. c #B98E40",
"!. c #BFA558",
"~. c #8A816B",
"^. c #98896C",
"/. c #888271",
"(. c #988C73",
"). c #9D9264",
"_. c #A5936D",
"`. c #AF9961",
"'. c #B79E62",
"]. c #A89672",
"[. c #AD976B",
"{. c #BBAC66",
"}. c #BBA777",
"|. c #AFA07B",
" X c #C69C46",
".X c #C29C50",
"XX c #DEAB4C",
"oX c #CBA255",
"OX c #D5AB58",
"+X c #D9B658",
"@X c #E4B14D",
"#X c #EFBB53",
"$X c #C6AA6A",
"%X c #D4B367",
"&X c #C7AC77",
"*X c #DCBB73",
"=X c #D7B97C",
"-X c #D5AF64",
";X c #E5BD6B",
":X c #FDCB5B",
">X c #F5D357",
",X c #EBC36A",
"<X c #F7C96C",
"1X c #FCD66A",
"2X c #E4C57B",
"3X c #EACA7A",
"4X c #EFCD78",
"5X c #FFE678",
"6X c #FFF674",
"7X c #9B9590",
"8X c #BAAC95",
"9X c #B6B4A9",
"0X c #ACAEBA",
"qX c #DDBE88",
"wX c #D7CA92",
"eX c #EBC887",
"rX c #F9D586",
"tX c #E1C894",
"yX c #F8D796",
"uX c #F1CF8A",
"iX c #FFF88E",
"pX c #FFE79E",
"aX c #FFF998",
"sX c #FFE58C",
"dX c #D9CBB6",
"fX c #DDD0B5",
"gX c #E9D8BA",
"hX c #F3DAAA",
"jX c #FBEBA5",
"kX c #FFF6A3",
"lX c #FFFFA5",
"zX c #FAE4B7",
"xX c #FEFAB8",
"cX c #D2D1C8",
"vX c #F2EFD2",
/* pixels */
"                      yX=X&XqXtXhX                              ",
"                ;Xg.v k B R -.2.b.^.}.eX                        ",
"            ,X_ % $ . % @.:.:.>.w.q.e.t.^.qX                    ",
"        kXT.- $ y R 2 + b.9._.u.M.i.e.e.q.:.R.eX                ",
"      aXB.. B E W &.).Z L.~._.^.8X(.|./.q.q.w.1.OX              ",
"      T.. * t p P.P.0.] = 9.8.0.u.M.].(.}.m.#.#.$.Q.            ",
"    4XO * @ p {.Q T I.E.+ u ~.~.~.^.u.(.[.m.R.>.@.@.V.          ",
"  xX_ . X ( W.T =.,.f *.1 = 7.r.y.m.M.^.[.8.R.v.! @.s F.        ",
"  2Xo X 4 k./ a 6.,.d -.! O a u.t.r.t.t.[.[.%.c.U.s e y XX      ",
"  L.X X U Y.=.{.P.g %.2.0.k.T.rXeX&Xy.2.9.b.6.1.W P.R 8 c rX    ",
"xXL X 5 ] 9.`.P.~ v.W.*XsXlX6X5XrX1XOX8.:.-.4.6.p c.5.t t C.    ",
"rXa @ 4 l.T ! g [ J.:X1XrXwXL.P m.=X:XW.:.<.! } { y M v.} F eX  ",
"*Xr # ) o.M 3.! ! C.W.I.7.;.p > f /.<XXX9.=.! Q I M u X..Xk  X  ",
"%Xt 9 Y X.K 3./ *.*.-.R ;.4.<.4 % 9.,X@X5.=.~ T N y N a U.[ G   ",
"%Xr 9 ' X.W } ! ! 1.4.*.-.%.8.} h.;X<XXX! =.Q M n j.1XT.6 N D 2X",
"2Xn 9 Q } T { ~ ! ,.=.=.P.$X4XaXiX1X,X4.d { ^ M y n.5X+Xn z ) OX",
"yX( 0 E l.R } Q ! =.*.F.#X:X5X3XE.>X1XR.f K ^ K 6 l X.^ I 6 -  X",
"  n.0 E  .W ..Q W ! *.A.H.!.;.W 2 L ,X6XZ.I f K K I 1 4 Y.. . Z.",
"  oXt w j.j.B u T Q f +.H.oXg K { 2 3 +X>XF.I a 6 [ . o P . . T.",
"  uX( 0 ( [ W y M T T K N.J.n.r I I - + T.K.S.3 4 V L _ H X o %X",
"  fX X9 0 g.j.M U Y u s G D. Xa 6 l l 3 6 ` V > n I E.n.7 @ r uX",
"    rXZ 8 m ' m L ( L : , S.J.O.1 V P V 7 - & o.E.E.4.l.u @ { pX",
"    cX@XO @ v s.= = g.c O S F m 7 7 V V 6 l l O.o.T 5.| q # {.wX",
"      zXf.. . , H < c g.5 4 - < 7 l l 7 1 l [ K M R U.T # p lX  ",
"        yXp.. . H D k ] D x c c k > & 3 : 3 U K J oXp 9 # {.xX  ",
"          pXp.. X = s.A c < x A Z 5 > Q.' = > v.P.i d #  .xX    ",
"            kXf.o . o < h.c F A < x : _ ' Z l./ / q 8 J lXcX    ",
"              zXF.j . . O = g.x h.x B.V I.U ` & d d ` iXcX      ",
"                vXeXf.; . . . . 6 l I 2 u & . o z V.aX9X        ",
"                    gXeXx.b ; . . 1 . O 1 4 b d.,XvX0X          ",
"                        dXyX,XoXA.a.a.h.V.-XpXtX7X              ",
"                              9XfXgXgXfX8X7X                    "
};
