/* XPM */
static char *a6133f6e4a6e487ee3d4e65c54f1852dh3KLPhadvv8MtVcj[] = {
/* columns rows colors chars-per-pixel */
"16 16 200 2 ",
"   c None",
".  c black",
"X  c #060303",
"o  c #050004",
"O  c #0B0600",
"+  c #0C0600",
"@  c #000009",
"#  c #03050F",
"$  c #08070E",
"%  c #0D0C0C",
"&  c #120300",
"*  c #130B03",
"=  c #160E07",
"-  c #080B10",
";  c #0D0C12",
":  c #121012",
">  c #161517",
",  c #1E1A17",
"<  c #1D1D18",
"1  c #1F1C1B",
"2  c #1B1D1F",
"3  c #231300",
"4  c #231400",
"5  c #211900",
"6  c #251D01",
"7  c #291C00",
"8  c #291F04",
"9  c #341C00",
"0  c #201C11",
"q  c #211F1D",
"w  c #31250C",
"e  c #3D2E0D",
"r  c #24211D",
"t  c #2A2518",
"y  c #2D2D1D",
"u  c #332912",
"i  c #312815",
"p  c #3F2F11",
"a  c #392C17",
"s  c #3B3015",
"d  c #3E3317",
"f  c #3F351B",
"g  c #0B1223",
"h  c #383021",
"j  c #3D3720",
"k  c #3D3627",
"l  c #333029",
"z  c #353430",
"x  c #3B3A35",
"c  c #3A3B37",
"v  c #4D3405",
"b  c #4F330B",
"n  c #433417",
"m  c #4D3310",
"M  c #473B1F",
"N  c #4D3E19",
"B  c #533F12",
"V  c #513E16",
"C  c #513F18",
"Z  c #4A3F25",
"A  c #40392C",
"S  c #3F403E",
"D  c #4B411E",
"F  c #584517",
"G  c #564018",
"H  c #554319",
"J  c #5D471C",
"K  c #5A491D",
"L  c #664A12",
"P  c #614A16",
"I  c #71571E",
"U  c #514326",
"Y  c #50462F",
"T  c #56482C",
"R  c #474337",
"E  c #484134",
"W  c #534934",
"Q  c #524837",
"!  c #594E36",
"~  c #5F4F34",
"^  c #5C4F36",
"/  c #5B523B",
"(  c #5D533E",
")  c #6B5023",
"_  c #65522B",
"`  c #66572A",
"'  c #61532F",
"]  c #65562F",
"[  c #645C2B",
"{  c #6E5C2E",
"}  c #7A5C21",
"|  c #775E2C",
" . c #645230",
".. c #685530",
"X. c #6E5D33",
"o. c #6D5E35",
"O. c #61553F",
"+. c #655839",
"@. c #665E39",
"#. c #66583E",
"$. c #726036",
"%. c #74633A",
"&. c #77633A",
"*. c #7E6C3E",
"=. c #303847",
"-. c #484541",
";. c #4F4C42",
":. c #4D4B44",
">. c #414049",
",. c #4F4D4D",
"<. c #504F4C",
"1. c #555347",
"2. c #585755",
"3. c #585B5E",
"4. c #695E46",
"5. c #6E6243",
"6. c #736642",
"7. c #766643",
"8. c #716444",
"9. c #716841",
"0. c #776D40",
"q. c #786B42",
"w. c #7B6946",
"e. c #716548",
"r. c #696550",
"t. c #6E6755",
"y. c #67655E",
"u. c #7F7452",
"i. c #7F7157",
"p. c #7F7556",
"a. c #5E5F62",
"s. c #5B5F65",
"d. c #676560",
"f. c #6C6B69",
"g. c #7D786F",
"h. c #AB7915",
"j. c #806C39",
"k. c #826C3C",
"l. c #987736",
"z. c #9A7C3A",
"x. c #997C3E",
"c. c #886E42",
"v. c #8A7748",
"b. c #8A744A",
"n. c #9C7B4E",
"m. c #877B55",
"M. c #877D59",
"N. c #807561",
"B. c #8D7F67",
"V. c #BE922E",
"C. c #E9AB38",
"Z. c #9F874B",
"A. c #9F914E",
"S. c #9A8353",
"D. c #968951",
"F. c #A58A5A",
"G. c #A69058",
"H. c #B79657",
"J. c #B5A25F",
"K. c #BEB25F",
"L. c #8F8C61",
"P. c #9D8B64",
"I. c #968D77",
"U. c #9F9072",
"Y. c #AB9363",
"T. c #AF9F67",
"R. c #A8956A",
"E. c #BE9E60",
"W. c #B39A6A",
"Q. c #A19475",
"!. c #A29578",
"~. c #B29B72",
"^. c #ABA36F",
"/. c #BAA06E",
"(. c #C29E4F",
"). c #CDA55E",
"_. c #D8B75E",
"`. c #C5B96F",
"'. c #C1AD7E",
"]. c #CEB070",
"[. c #DFBE7F",
"{. c #FECC45",
"}. c #E5C85F",
"|. c #FBC950",
" X c #EACE69",
".X c #FFD66D",
"XX c #F3DD6F",
"oX c #E1C271",
"OX c #B7A381",
"+X c #B3A48D",
"@X c #CDB88E",
"#X c #D8BE87",
"$X c #D2C68E",
"%X c #D2CB94",
"&X c #E2C896",
"*X c #F6EA93",
"=X c #D2CBA7",
"-X c #E3CEAF",
";X c #F1D9B0",
":X c #F5F3CB",
/* pixels */
"        (.c.i.B.+X              ",
"      ~ % . 1.d.3.s.g.[.        ",
"    5 $ p.j.%.!.Q.I.a.=.R.      ",
"  D . 6.e.O.= ,.f.U./.t.g S.    ",
"%X.  .G.;.>.@.J.'.y.N.b.4.# W.  ",
"m.X *.r.z. X*XK.oXE.<.( +.A )   ",
"#., X.c k.D.2.@ Q .X7.E h ..} H.",
"8.q $./ :.-.u.`.XX).c k o._.a x.",
"P.1 %.W S l.|.^.A. X%.l D ] t H ",
"  r ~ T z _ C.E $ [ {.J < D O M ",
"  w.; | U 2 h.V.y i d K 0.Z.o M.",
"  &X9 * L G e F d s 0 Y v.! > $X",
"    ].3 + I J p w n V  .5.@ L.  ",
"      #Xm & 8 B H { ` f : 0.:X  ",
"        ;Xn.b 3 6 6 u v ^.=X    ",
"            -XOXY.F.~.@X        "
};
